<svg width="24" height="22" viewBox="0 0 24 22" fill="none" xmlns="http://www.w3.org/2000/svg">
<g id="Group">
<path id="Vector" d="M17.625 0C16.3227 0 15.1287 0.412687 14.0762 1.22662C13.0673 2.00695 12.3955 3.00084 12 3.72356C11.6045 3.0008 10.9327 2.00695 9.92377 1.22662C8.87133 0.412687 7.67733 0 6.375 0C2.74069 0 0 2.97267 0 6.91472C0 11.1735 3.4192 14.0873 8.59542 18.4984C9.47442 19.2475 10.4707 20.0966 11.5063 21.0022C11.6428 21.1217 11.8181 21.1875 12 21.1875C12.1819 21.1875 12.3572 21.1217 12.4937 21.0022C13.5293 20.0965 14.5256 19.2474 15.4051 18.4979C20.5808 14.0873 24 11.1735 24 6.91472C24 2.97267 21.2593 0 17.625 0Z" fill="#FD8DD2"/>
</g>
</svg>
