<svg width="24" height="24" viewBox="0 0 24 24" fill="none" xmlns="http://www.w3.org/2000/svg">
<path id="Vector" d="M12 0C5.37258 0 0 5.37258 0 12C0 18.6274 5.37258 24 12 24C18.6274 24 24 18.6274 24 12C24 5.37258 18.6274 0 12 0ZM16.0827 5.9123C17.4352 5.9123 18.5356 7.01264 18.5356 8.36517H17.1293C17.1293 7.78805 16.6598 7.31855 16.0827 7.31855C15.5056 7.31855 15.0361 7.78805 15.0361 8.36517H13.6298C13.6298 7.01264 14.7302 5.9123 16.0827 5.9123ZM7.91728 5.9123C9.26981 5.9123 10.3702 7.01264 10.3702 8.36517H8.96391C8.96391 7.78805 8.49441 7.31855 7.91728 7.31855C7.34016 7.31855 6.87066 7.78805 6.87066 8.36517H5.46441C5.46445 7.01264 6.5648 5.9123 7.91728 5.9123ZM20.2002 12.5944C19.8945 16.8515 16.3336 20.2218 12 20.2218C7.66636 20.2218 4.10545 16.8515 3.79983 12.5944C2.92111 12.3069 2.28441 11.4797 2.28441 10.5062H3.69066C3.69066 10.9422 4.04531 11.2968 4.4813 11.2968C4.91728 11.2968 5.27194 10.9422 5.27194 10.5062H6.67819C6.67819 11.4625 6.0638 12.2775 5.20922 12.5786C5.50397 16.0669 8.4368 18.8155 12 18.8155C15.5632 18.8155 18.496 16.0669 18.7907 12.5786C17.9362 12.2775 17.3218 11.4625 17.3218 10.5062H18.728C18.728 10.9422 19.0827 11.2969 19.5187 11.2969C19.9546 11.2969 20.3093 10.9422 20.3093 10.5062H21.7155C21.7156 11.4797 21.0788 12.3069 20.2002 12.5944Z" fill="#FD8DD2"/>
</svg>
